<svg xmlns="http://www.w3.org/2000/svg" width="192" height="96" viewBox="0 0 192 96" shape-rendering="crispEdges">
  <g id="tree-a">
    <ellipse cx="48" cy="87" rx="29" ry="6" fill="#173b2f" opacity=".34"/>
    <rect x="43" y="60" width="10" height="27" fill="#6e4826"/>
    <rect x="46" y="58" width="5" height="29" fill="#9a6731"/>
    <rect x="38" y="48" width="20" height="18" fill="#245d3f"/>
    <rect x="28" y="31" width="40" height="29" fill="#1d6a45"/>
    <rect x="20" y="39" width="16" height="18" fill="#185438"/>
    <rect x="60" y="37" width="17" height="20" fill="#185438"/>
    <rect x="34" y="18" width="29" height="18" fill="#2f8250"/>
    <rect x="28" y="24" width="12" height="15" fill="#3c9659"/>
    <rect x="54" y="23" width="13" height="14" fill="#277447"/>
    <rect x="23" y="43" width="9" height="8" fill="#49a95d"/>
    <rect x="38" y="22" width="8" height="7" fill="#58b968"/>
    <rect x="60" y="31" width="8" height="7" fill="#49a95d"/>
    <rect x="34" y="47" width="8" height="7" fill="#2f8250"/>
    <rect x="49" y="38" width="7" height="7" fill="#3c9659"/>
    <rect x="67" y="45" width="7" height="7" fill="#277447"/>
    <rect x="30" y="33" width="5" height="5" fill="#9bd36a"/>
    <rect x="45" y="18" width="5" height="5" fill="#9bd36a"/>
    <rect x="59" y="27" width="5" height="5" fill="#7fc65f"/>
    <rect x="40" y="42" width="5" height="5" fill="#7fc65f"/>
  </g>
  <g id="tree-b" transform="translate(96 0)">
    <ellipse cx="48" cy="87" rx="28" ry="6" fill="#173b2f" opacity=".34"/>
    <rect x="42" y="58" width="12" height="29" fill="#704526"/>
    <rect x="47" y="58" width="5" height="29" fill="#a06a34"/>
    <rect x="29" y="35" width="39" height="28" fill="#1d603f"/>
    <rect x="20" y="41" width="18" height="17" fill="#174f35"/>
    <rect x="59" y="38" width="18" height="19" fill="#174f35"/>
    <rect x="34" y="19" width="29" height="21" fill="#327d4e"/>
    <rect x="26" y="27" width="17" height="18" fill="#3c9257"/>
    <rect x="54" y="27" width="16" height="18" fill="#267044"/>
    <rect x="23" y="45" width="9" height="8" fill="#53a961"/>
    <rect x="37" y="23" width="8" height="7" fill="#65b96d"/>
    <rect x="58" y="31" width="8" height="7" fill="#4ca55e"/>
    <rect x="37" y="48" width="8" height="7" fill="#2f7d4d"/>
    <rect x="51" y="42" width="7" height="7" fill="#3d9257"/>
    <rect x="67" y="46" width="7" height="7" fill="#267044"/>
    <rect x="31" y="34" width="5" height="5" fill="#f3cc65"/>
    <rect x="44" y="20" width="5" height="5" fill="#f3cc65"/>
    <rect x="60" y="29" width="5" height="5" fill="#d99f43"/>
    <rect x="47" y="35" width="5" height="5" fill="#f3cc65"/>
    <rect x="57" y="49" width="5" height="5" fill="#d99f43"/>
  </g>
</svg>