<svg xmlns="http://www.w3.org/2000/svg" width="288" height="96" viewBox="0 0 288 96" shape-rendering="crispEdges">
  <!-- Portero: structured blue coat, peaked cap, gold staff -->
  <g transform="translate(0 0)">
    <rect x="30" y="80" width="36" height="3" fill="#173f36" opacity=".38"/>
    <rect x="35" y="79" width="11" height="3" fill="#152633"/><rect x="51" y="79" width="11" height="3" fill="#152633"/>
    <rect x="39" y="19" width="18" height="3" fill="#20314a"/><rect x="36" y="22" width="24" height="4" fill="#294362"/><rect x="42" y="17" width="12" height="3" fill="#172638"/>
    <rect x="38" y="26" width="20" height="11" fill="#d7b07a"/><rect x="40" y="28" width="16" height="9" fill="#e7c493"/>
    <rect x="40" y="28" width="4" height="3" fill="#533b2d"/><rect x="52" y="28" width="4" height="3" fill="#533b2d"/><rect x="47" y="34" width="5" height="2" fill="#b67e55"/>
    <rect x="34" y="37" width="28" height="5" fill="#f1ead2"/><rect x="31" y="42" width="34" height="16" fill="#3e6f99"/>
    <rect x="34" y="58" width="28" height="8" fill="#365f86"/><rect x="38" y="42" width="4" height="24" fill="#5686b2"/><rect x="54" y="42" width="4" height="24" fill="#294f76"/>
    <rect x="28" y="44" width="5" height="16" fill="#2b4d6f"/><rect x="25" y="48" width="4" height="12" fill="#2b4d6f"/><rect x="64" y="44" width="5" height="16" fill="#2b4d6f"/><rect x="68" y="49" width="4" height="11" fill="#2b4d6f"/>
    <rect x="42" y="43" width="12" height="10" fill="#f1ead2"/><rect x="45" y="45" width="6" height="6" fill="#c9a24a"/><rect x="46" y="46" width="4" height="2" fill="#f5e8b5"/>
    <rect x="35" y="66" width="11" height="12" fill="#213346"/><rect x="51" y="66" width="11" height="12" fill="#213346"/><rect x="39" y="66" width="7" height="4" fill="#294a64"/><rect x="51" y="66" width="7" height="4" fill="#294a64"/>
    <rect x="23" y="42" width="3" height="31" fill="#9e6a03"/><rect x="21" y="39" width="7" height="5" fill="#e7c56a"/><rect x="22" y="40" width="5" height="2" fill="#f5e8b5"/><rect x="20" y="72" width="9" height="3" fill="#c9a24a"/>
  </g>
  <!-- Joyero: forest waistcoat, apron, gem tray and loupe -->
  <g transform="translate(96 0)">
    <rect x="30" y="80" width="36" height="3" fill="#173f36" opacity=".38"/>
    <rect x="35" y="79" width="11" height="3" fill="#10251f"/><rect x="51" y="79" width="11" height="3" fill="#10251f"/>
    <rect x="36" y="20" width="24" height="5" fill="#173f36"/><rect x="39" y="18" width="18" height="3" fill="#24483b"/>
    <rect x="38" y="25" width="20" height="12" fill="#c89462"/><rect x="41" y="27" width="15" height="10" fill="#dda778"/>
    <rect x="42" y="29" width="4" height="3" fill="#422f25"/><rect x="53" y="29" width="4" height="3" fill="#422f25"/><rect x="47" y="35" width="6" height="2" fill="#9d6847"/>
    <rect x="33" y="37" width="30" height="5" fill="#c9a24a"/><rect x="30" y="42" width="36" height="17" fill="#1f5a49"/>
    <rect x="34" y="59" width="28" height="7" fill="#19483c"/><rect x="37" y="42" width="4" height="24" fill="#357762"/><rect x="56" y="42" width="4" height="24" fill="#153f35"/>
    <rect x="27" y="44" width="5" height="17" fill="#173f36"/><rect x="24" y="50" width="4" height="11" fill="#173f36"/><rect x="65" y="44" width="5" height="16" fill="#173f36"/>
    <rect x="41" y="43" width="14" height="13" fill="#10221f"/><rect x="44" y="46" width="8" height="7" fill="#e7c56a"/><rect x="46" y="45" width="4" height="2" fill="#f5e8b5"/>
    <rect x="36" y="66" width="10" height="12" fill="#132f29"/><rect x="51" y="66" width="10" height="12" fill="#132f29"/>
    <rect x="67" y="47" width="13" height="4" fill="#9e6a03"/><rect x="68" y="51" width="12" height="8" fill="#c9a24a"/><rect x="70" y="52" width="8" height="5" fill="#f5e8b5"/><rect x="72" y="50" width="4" height="4" fill="#8be0d0"/><rect x="73" y="49" width="2" height="2" fill="#ffffff"/>
    <rect x="57" y="27" width="5" height="2" fill="#c9a24a"/><rect x="61" y="28" width="2" height="5" fill="#c9a24a"/>
  </g>
  <!-- Maestro: burgundy mantle, layered robe, tall staff -->
  <g transform="translate(192 0)">
    <rect x="29" y="80" width="38" height="3" fill="#173f36" opacity=".38"/>
    <rect x="35" y="79" width="11" height="3" fill="#27171d"/><rect x="51" y="79" width="11" height="3" fill="#27171d"/>
    <rect x="35" y="18" width="26" height="5" fill="#6d2636"/><rect x="31" y="22" width="34" height="4" fill="#8f3448"/><rect x="39" y="16" width="18" height="3" fill="#54202c"/>
    <rect x="38" y="26" width="20" height="11" fill="#d5a06e"/><rect x="41" y="28" width="15" height="9" fill="#e0b080"/>
    <rect x="42" y="29" width="4" height="3" fill="#4e3027"/><rect x="53" y="29" width="4" height="3" fill="#4e3027"/><rect x="47" y="35" width="6" height="2" fill="#a86f4e"/>
    <rect x="32" y="37" width="32" height="5" fill="#f1ead2"/><rect x="29" y="42" width="38" height="17" fill="#7f3042"/>
    <rect x="33" y="59" width="30" height="8" fill="#6c2939"/><rect x="37" y="42" width="5" height="25" fill="#984257"/><rect x="55" y="42" width="5" height="25" fill="#5e2232"/>
    <rect x="26" y="44" width="5" height="18" fill="#5e2232"/><rect x="23" y="49" width="4" height="13" fill="#5e2232"/><rect x="66" y="44" width="5" height="18" fill="#5e2232"/>
    <rect x="41" y="43" width="14" height="11" fill="#f1ead2"/><rect x="44" y="45" width="8" height="7" fill="#c9a24a"/><rect x="46" y="44" width="4" height="2" fill="#f5e8b5"/>
    <rect x="36" y="67" width="10" height="11" fill="#301a22"/><rect x="51" y="67" width="10" height="11" fill="#301a22"/>
    <rect x="72" y="29" width="3" height="45" fill="#4a3224"/><rect x="69" y="26" width="9" height="5" fill="#e7c56a"/><rect x="71" y="24" width="5" height="3" fill="#f5e8b5"/><rect x="69" y="73" width="9" height="3" fill="#c9a24a"/>
  </g>
</svg>